<svg xmlns="http://www.w3.org/2000/svg" viewBox="0 0 100 100">
  <defs>
    <linearGradient id="grad" x1="0%" y1="0%" x2="100%" y2="100%">
      <stop offset="0%" style="stop-color:#4f46e5;stop-opacity:1" />
      <stop offset="100%" style="stop-color:#4338ca;stop-opacity:1" />
    </linearGradient>
  </defs>
  <rect width="100" height="100" rx="25" ry="25" fill="url(#grad)" />
  <path fill="#ffffff" transform="translate(18, 25) scale(0.1)" d="M320 32c-8.1 0-16.1 1.4-23.7 4.1L15.8 137.4C6.3 140.9 0 149.9 0 160s6.3 19.1 15.8 22.6l57.9 20.9C57.3 229.3 48 259.8 48 291.9v28.1c0 28.4-10.8 57.7-22.3 80.8c-6.5 13-13.9 25.8-22.5 37.6C0 442.7-.9 448.3 .9 453.4s6 8.9 11.2 10.2l64 16c4.2 1.1 8.7 .3 12.4-2s6.3-6.1 7.1-10.4c8.6-42.8 4.3-81.2-2.1-108.7C90.3 344.3 86 329.8 80 316.5V291.9c0-30.2 10.2-58.7 27.9-81.5c12.9-15.5 29.6-28 49.2-35.7l152-55c8.2-3 17.2-3 25.4 0l152 55c19.6 7.7 36.3 20.2 49.2 35.7c17.7 22.8 27.9 51.3 27.9 81.5v24.6c-6 13.3-10.3 27.8-13.5 41.9c-6.4 27.5-10.7 65.9-2.1 108.7c.8 4.3 3.4 8.1 7.1 10.4s8.2 3.1 12.4 2l64-16c5.2-1.3 9.4-5.1 11.2-10.2s.9-10.7-2.4-15c-8.6-11.8-16-24.6-22.5-37.6C586.8 377.7 576 348.3 576 319.9V291.9c0-32.1-9.3-62.6-25.7-88.5l57.9-20.9c9.5-3.5 15.8-12.5 15.8-22.6s-6.3-19.1-15.8-22.6L343.7 36.1C336.1 33.4 328.1 32 320 32zM128 408c0 35.3 86 72 192 72s192-36.7 192-72L496.7 262.6 354.5 314c-11.1 4-22.8 6-34.5 6s-23.5-2-34.5-6L143.3 262.6 128 408z"/>
</svg>
